<svg width="2200" height="600" viewBox="0 0 2200 600" fill="none" xmlns="http://www.w3.org/2000/svg">
<rect width="2200" height="600" fill="white"/>
<path d="M570.271 179.9H623.87V193.865H605.383V273H588.625V193.865H570.271V179.9ZM666.7 238.021V242.41H635.046C635.445 254.513 637.972 261.163 643.824 261.163C648.612 261.163 651.139 257.306 651.139 249.193H666.434C666.434 264.887 658.986 274.463 643.691 274.463C625.204 274.463 618.288 260.498 618.288 238.819C618.288 217.14 625.204 203.175 642.494 203.175C659.651 203.175 666.7 213.549 666.7 238.021ZM635.578 228.445H651.272C650.74 220.997 647.947 216.475 643.558 216.475C638.77 216.475 636.509 220.731 635.578 228.445ZM735.216 203.175C747.186 203.175 753.57 212.485 753.57 232.701V273H737.477V232.701C737.477 221.928 735.748 216.741 730.428 216.741C725.108 216.741 722.182 222.859 722.182 234.696H722.049V273H706.089V232.701C706.089 221.928 704.227 216.741 699.04 216.741C693.853 216.741 690.927 222.327 690.794 233.233V273H674.701V204.638H690.794V210.091C693.853 205.436 698.242 203.175 703.695 203.175C711.409 203.175 716.862 207.032 719.655 215.145C722.714 207.165 728.034 203.175 735.216 203.175ZM793.088 203.175C806.654 203.175 814.235 215.145 814.235 238.819C814.235 261.163 809.048 274.463 793.088 274.463C786.438 274.463 781.783 271.138 778.724 265.286V299.068H762.631V204.638H778.724V213.283C781.916 206.899 786.704 203.175 793.088 203.175ZM788.433 261.163C794.95 261.163 797.477 253.183 797.477 238.819C797.477 224.455 794.95 216.475 788.433 216.475C781.916 216.475 779.389 224.455 779.389 238.819C779.389 253.183 781.916 261.163 788.433 261.163ZM846.054 203.175C864.541 203.175 871.856 217.14 871.856 238.819C871.856 260.498 864.541 274.463 846.054 274.463C827.567 274.463 820.252 260.498 820.252 238.819C820.252 217.14 827.567 203.175 846.054 203.175ZM846.054 261.163C852.571 261.163 855.098 253.183 855.098 238.819C855.098 224.455 852.571 216.475 846.054 216.475C839.537 216.475 837.01 224.455 837.01 238.819C837.01 253.183 839.537 261.163 846.054 261.163ZM895.619 211.288C898.545 206.766 903.067 204.106 909.052 204.106C910.515 204.106 912.111 204.239 913.84 204.638V218.736C911.446 218.337 909.318 218.071 907.456 218.071C899.875 218.071 895.619 222.061 895.619 234.696V273H879.526V204.638H895.619V211.288ZM920.118 207.032C927.832 204.771 934.615 203.308 940.201 203.308C951.506 203.308 958.156 209.16 958.156 226.184V273H942.063V267.547C939.27 271.936 935.28 274.33 929.827 274.33C919.852 274.33 914.399 267.414 914.399 254.247C914.399 239.484 922.113 230.972 935.28 229.642L942.063 228.977C941.664 220.731 939.004 217.805 933.95 217.805C931.024 217.805 927.3 218.736 922.778 220.199L920.118 207.032ZM942.063 248.661V241.612L938.871 242.011C933.817 242.676 931.157 246.932 931.157 253.183C931.157 258.37 932.886 261.163 935.945 261.163C939.935 261.163 942.063 257.04 942.063 248.661ZM983.42 211.288C986.346 206.766 990.868 204.106 996.853 204.106C998.316 204.106 999.912 204.239 1001.64 204.638V218.736C999.247 218.337 997.119 218.071 995.257 218.071C987.676 218.071 983.42 222.061 983.42 234.696V273H967.327V204.638H983.42V211.288ZM1045.46 204.638H1062.22L1043.86 266.084C1038.41 284.704 1032.56 298.27 1022.98 310.639L1009.68 303.989C1015 296.541 1021.52 284.571 1026.18 272.069L1004.1 204.638H1020.86L1034.29 244.804L1045.46 204.638ZM1123.92 179.9C1138.81 180.299 1146.13 191.072 1146.13 207.83C1146.13 225.386 1136.82 235.76 1118.73 235.76H1115.41V273H1098.65V179.9H1123.92ZM1118.86 221.795C1124.98 221.795 1128.57 216.741 1128.57 207.83C1128.57 199.318 1125.91 193.865 1119.66 193.865H1115.41V221.795H1118.86ZM1167.98 273H1151.89V178.437H1167.98V273ZM1180.53 207.032C1188.25 204.771 1195.03 203.308 1200.62 203.308C1211.92 203.308 1218.57 209.16 1218.57 226.184V273H1202.48V267.547C1199.68 271.936 1195.69 274.33 1190.24 274.33C1180.27 274.33 1174.81 267.414 1174.81 254.247C1174.81 239.484 1182.53 230.972 1195.69 229.642L1202.48 228.977C1202.08 220.731 1199.42 217.805 1194.36 217.805C1191.44 217.805 1187.71 218.736 1183.19 220.199L1180.53 207.032ZM1202.48 248.661V241.612L1199.29 242.011C1194.23 242.676 1191.57 246.932 1191.57 253.183C1191.57 258.37 1193.3 261.163 1196.36 261.163C1200.35 261.163 1202.48 257.04 1202.48 248.661ZM1251.42 261.163C1256.2 261.163 1258.73 257.306 1258.73 249.193H1274.03C1274.03 264.887 1266.58 274.463 1251.28 274.463C1232.8 274.463 1225.88 260.498 1225.88 238.819C1225.88 217.14 1232.8 203.175 1251.28 203.175C1267.11 203.175 1274.29 213.416 1274.29 229.775H1258.86C1258.86 220.731 1256.47 216.475 1251.42 216.475C1244.9 216.475 1242.64 224.455 1242.64 238.819C1242.64 253.183 1244.9 261.163 1251.42 261.163ZM1328.19 238.021V242.41H1296.54C1296.94 254.513 1299.46 261.163 1305.32 261.163C1310.1 261.163 1312.63 257.306 1312.63 249.193H1327.93C1327.93 264.887 1320.48 274.463 1305.18 274.463C1286.7 274.463 1279.78 260.498 1279.78 238.819C1279.78 217.14 1286.7 203.175 1303.99 203.175C1321.14 203.175 1328.19 213.549 1328.19 238.021ZM1297.07 228.445H1312.76C1312.23 220.997 1309.44 216.475 1305.05 216.475C1300.26 216.475 1298 220.731 1297.07 228.445ZM1366.92 203.175C1379.95 203.175 1387.13 211.687 1387.13 232.701V273H1371.04V232.701C1371.04 222.194 1368.25 217.007 1362.13 217.007C1356.41 217.007 1352.55 222.593 1352.29 233.632V273H1336.19V178.437H1352.29V210.756C1355.61 205.702 1360.53 203.175 1366.92 203.175ZM1419.88 203.175C1438.36 203.175 1445.68 217.14 1445.68 238.819C1445.68 260.498 1438.36 274.463 1419.88 274.463C1401.39 274.463 1394.07 260.498 1394.07 238.819C1394.07 217.14 1401.39 203.175 1419.88 203.175ZM1419.88 261.163C1426.39 261.163 1428.92 253.183 1428.92 238.819C1428.92 224.455 1426.39 216.475 1419.88 216.475C1413.36 216.475 1410.83 224.455 1410.83 238.819C1410.83 253.183 1413.36 261.163 1419.88 261.163ZM1469.44 273H1453.35V178.437H1469.44V273ZM1512.85 178.437H1528.94V273H1512.85V265.286C1509.79 271.138 1505.13 274.463 1498.48 274.463C1482.52 274.463 1477.34 260.498 1477.34 238.819C1477.34 217.14 1484.92 203.175 1498.48 203.175C1504.87 203.175 1509.65 206.899 1512.85 213.283V178.437ZM1503.14 261.163C1509.65 261.163 1512.18 253.183 1512.18 238.819C1512.18 224.455 1509.65 216.475 1503.14 216.475C1496.62 216.475 1494.09 224.455 1494.09 238.819C1494.09 253.183 1496.62 261.163 1503.14 261.163ZM1585.23 238.021V242.41H1553.58C1553.98 254.513 1556.5 261.163 1562.36 261.163C1567.14 261.163 1569.67 257.306 1569.67 249.193H1584.97C1584.97 264.887 1577.52 274.463 1562.22 274.463C1543.74 274.463 1536.82 260.498 1536.82 238.819C1536.82 217.14 1543.74 203.175 1561.03 203.175C1578.18 203.175 1585.23 213.549 1585.23 238.021ZM1554.11 228.445H1569.8C1569.27 220.997 1566.48 216.475 1562.09 216.475C1557.3 216.475 1555.04 220.731 1554.11 228.445ZM1609.32 211.288C1612.25 206.766 1616.77 204.106 1622.76 204.106C1624.22 204.106 1625.82 204.239 1627.55 204.638V218.736C1625.15 218.337 1623.02 218.071 1621.16 218.071C1613.58 218.071 1609.32 222.061 1609.32 234.696V273H1593.23V204.638H1609.32V211.288ZM634.201 320.402C625.822 320.402 624.226 332.904 624.226 354.45C624.226 375.996 625.822 388.498 634.201 388.498C640.851 388.498 643.777 380.917 643.777 366.952H661.333C661.333 389.961 654.284 402.33 634.201 402.33C610.793 402.33 606.803 383.976 606.803 354.45C606.803 324.924 611.591 306.437 635.132 306.437C655.082 306.437 661.333 319.604 661.333 341.948H643.777C643.777 327.85 640.851 320.402 634.201 320.402ZM692.728 331.175C711.215 331.175 718.53 345.14 718.53 366.819C718.53 388.498 711.215 402.463 692.728 402.463C674.241 402.463 666.926 388.498 666.926 366.819C666.926 345.14 674.241 331.175 692.728 331.175ZM692.728 389.163C699.245 389.163 701.772 381.183 701.772 366.819C701.772 352.455 699.245 344.475 692.728 344.475C686.211 344.475 683.684 352.455 683.684 366.819C683.684 381.183 686.211 389.163 692.728 389.163ZM756.922 331.175C769.956 331.175 777.138 339.687 777.138 360.701V401H761.045V360.701C761.045 350.194 758.252 345.007 752.134 345.007C746.415 345.007 742.558 350.593 742.292 361.632V401H726.199V332.638H742.292V338.756C745.617 333.702 750.538 331.175 756.922 331.175ZM801.636 375.464C801.636 383.045 804.828 387.567 812.542 387.567C814.005 387.567 815.867 387.434 817.729 387.035V401C813.473 401.931 809.616 402.33 806.291 402.33C791.395 402.33 785.543 393.685 785.543 378.523V317.875H801.636V332.638H814.138V346.603H801.636V375.464ZM869.642 366.021V370.41H837.988C838.387 382.513 840.914 389.163 846.766 389.163C851.554 389.163 854.081 385.306 854.081 377.193H869.376C869.376 392.887 861.928 402.463 846.633 402.463C828.146 402.463 821.23 388.498 821.23 366.819C821.23 345.14 828.146 331.175 845.436 331.175C862.593 331.175 869.642 341.549 869.642 366.021ZM838.52 356.445H854.214C853.682 348.997 850.889 344.475 846.5 344.475C841.712 344.475 839.451 348.731 838.52 356.445ZM908.365 331.175C921.399 331.175 928.581 339.687 928.581 360.701V401H912.488V360.701C912.488 350.194 909.695 345.007 903.577 345.007C897.858 345.007 894.001 350.593 893.735 361.632V401H877.642V332.638H893.735V338.756C897.06 333.702 901.981 331.175 908.365 331.175ZM953.079 375.464C953.079 383.045 956.271 387.567 963.985 387.567C965.448 387.567 967.31 387.434 969.172 387.035V401C964.916 401.931 961.059 402.33 957.734 402.33C942.838 402.33 936.986 393.685 936.986 378.523V317.875H953.079V332.638H965.581V346.603H953.079V375.464ZM1030.29 389.163C1035.08 389.163 1037.61 385.306 1037.61 377.193H1052.9C1052.9 392.887 1045.45 402.463 1030.16 402.463C1011.67 402.463 1004.75 388.498 1004.75 366.819C1004.75 345.14 1011.67 331.175 1030.16 331.175C1045.98 331.175 1053.17 341.416 1053.17 357.775H1037.74C1037.74 348.731 1035.34 344.475 1030.29 344.475C1023.77 344.475 1021.51 352.455 1021.51 366.819C1021.51 381.183 1023.77 389.163 1030.29 389.163ZM1084.32 331.175C1102.81 331.175 1110.13 345.14 1110.13 366.819C1110.13 388.498 1102.81 402.463 1084.32 402.463C1065.84 402.463 1058.52 388.498 1058.52 366.819C1058.52 345.14 1065.84 331.175 1084.32 331.175ZM1084.32 389.163C1090.84 389.163 1093.37 381.183 1093.37 366.819C1093.37 352.455 1090.84 344.475 1084.32 344.475C1077.81 344.475 1075.28 352.455 1075.28 366.819C1075.28 381.183 1077.81 389.163 1084.32 389.163ZM1178.31 331.175C1190.28 331.175 1196.66 340.485 1196.66 360.701V401H1180.57V360.701C1180.57 349.928 1178.84 344.741 1173.52 344.741C1168.2 344.741 1165.28 350.859 1165.28 362.696H1165.14V401H1149.18V360.701C1149.18 349.928 1147.32 344.741 1142.13 344.741C1136.95 344.741 1134.02 350.327 1133.89 361.233V401H1117.8V332.638H1133.89V338.091C1136.95 333.436 1141.34 331.175 1146.79 331.175C1154.5 331.175 1159.96 335.032 1162.75 343.145C1165.81 335.165 1171.13 331.175 1178.31 331.175ZM1221.82 325.057H1205.73V309.097H1221.82V325.057ZM1221.82 401H1205.73V332.638H1221.82V401ZM1262.17 331.175C1275.2 331.175 1282.38 339.687 1282.38 360.701V401H1266.29V360.701C1266.29 350.194 1263.5 345.007 1257.38 345.007C1251.66 345.007 1247.8 350.593 1247.54 361.632V401H1231.44V332.638H1247.54V338.756C1250.86 333.702 1255.78 331.175 1262.17 331.175ZM1314.73 393.286C1306.61 393.419 1303.02 397.675 1303.02 403.66C1303.02 408.714 1305.28 411.108 1314.59 411.108C1319.52 411.108 1326.56 410.443 1336.41 408.98V423.344C1327.5 425.073 1319.78 426.004 1313.4 426.004C1296.77 426.004 1288.53 419.886 1288.53 405.788C1288.53 397.01 1292.12 390.493 1299.57 386.902C1292.52 381.715 1290.39 372.405 1290.39 361.898C1290.39 347.8 1294.91 335.298 1307.41 331.973L1335.87 320.668L1340.66 333.702L1329.22 338.224C1335.48 342.879 1337.74 352.322 1337.74 363.494C1337.74 380.518 1331.09 393.02 1314.73 393.286ZM1314.06 345.14C1308.88 345.14 1307.15 352.854 1307.15 361.898C1307.15 372.272 1308.34 379.321 1314.06 379.321C1319.65 379.321 1320.98 372.538 1320.98 361.898C1320.98 352.588 1319.78 345.14 1314.06 345.14ZM1393.51 349.263C1393.51 361.765 1418.51 363.361 1418.51 383.577C1418.51 393.685 1412.53 402.33 1396.97 402.33C1381.94 402.33 1375.69 395.015 1375.69 380.518H1392.05C1392.05 386.902 1393.64 389.429 1397.5 389.429C1400.16 389.429 1402.15 387.434 1402.15 383.843C1402.15 371.075 1377.28 373.07 1377.28 349.396C1377.28 338.756 1385.26 331.175 1397.1 331.175C1410 331.175 1416.92 339.288 1416.92 353.12H1401.09C1401.09 345.938 1398.83 344.209 1397.1 344.209C1394.17 344.209 1393.51 346.47 1393.51 349.263ZM1449.68 331.175C1468.17 331.175 1475.49 345.14 1475.49 366.819C1475.49 388.498 1468.17 402.463 1449.68 402.463C1431.2 402.463 1423.88 388.498 1423.88 366.819C1423.88 345.14 1431.2 331.175 1449.68 331.175ZM1449.68 389.163C1456.2 389.163 1458.73 381.183 1458.73 366.819C1458.73 352.455 1456.2 344.475 1449.68 344.475C1443.17 344.475 1440.64 352.455 1440.64 366.819C1440.64 381.183 1443.17 389.163 1449.68 389.163ZM1506.96 331.175C1525.45 331.175 1532.77 345.14 1532.77 366.819C1532.77 388.498 1525.45 402.463 1506.96 402.463C1488.48 402.463 1481.16 388.498 1481.16 366.819C1481.16 345.14 1488.48 331.175 1506.96 331.175ZM1506.96 389.163C1513.48 389.163 1516.01 381.183 1516.01 366.819C1516.01 352.455 1513.48 344.475 1506.96 344.475C1500.45 344.475 1497.92 352.455 1497.92 366.819C1497.92 381.183 1500.45 389.163 1506.96 389.163ZM1571.16 331.175C1584.19 331.175 1591.37 339.687 1591.37 360.701V401H1575.28V360.701C1575.28 350.194 1572.49 345.007 1566.37 345.007C1560.65 345.007 1556.79 350.593 1556.53 361.632V401H1540.43V332.638H1556.53V338.756C1559.85 333.702 1564.77 331.175 1571.16 331.175Z" fill="black"/>
</svg>
